<svg xmlns="http://www.w3.org/2000/svg" viewBox="0 0 144.18 34.36"><defs><style>.cls-1{fill:#fff;}.cls-2{fill:#fccf00;}</style></defs><g id="Calque_2" data-name="Calque 2"><g id="Calque_1-2" data-name="Calque 1"><path class="cls-1" d="M47.71,6.78v8.47H60V20H47.71V32.26h-5V2H60.45V6.78Z"/><path class="cls-1" d="M86.57,10.67V32.26H81.91V29.15a8.87,8.87,0,0,1-7.56,3.67A11,11,0,0,1,63.6,21.46c0-6.43,4.88-11.35,10.75-11.35a9,9,0,0,1,7.56,3.62V10.67ZM81.91,21.46a6.83,6.83,0,1,0-13.65,0,6.83,6.83,0,1,0,13.65,0Z"/><path class="cls-1" d="M108.07,27.85v4.41H91.23V29.15l10.11-14.08H91.66v-4.4h16v3.11L97.58,27.85Z"/><path class="cls-1" d="M144.18,18.87V32.26h-4.67V19.18c0-3-1.64-4.71-4.19-4.71-2.76,0-4.7,1.77-4.7,5.7V32.26H126V19.18c0-3-1.51-4.71-4.06-4.71s-4.79,1.77-4.79,5.7V32.26h-4.66V10.67h4.66v2.59a6.93,6.93,0,0,1,6.18-3.15,6.71,6.71,0,0,1,6.13,3.41,7.38,7.38,0,0,1,6.6-3.41C140.89,10.11,144.18,13.48,144.18,18.87Z"/><polygon class="cls-2" points="14.88 0 29.76 8.59 29.76 25.77 16.24 33.58 13.13 28.2 23.55 22.18 23.55 15.77 15.64 20.33 15.64 13.18 20.77 10.21 14.88 0"/><polygon class="cls-1" points="14.88 34.36 0 25.77 0 8.59 13.51 0.79 16.61 6.17 6.22 12.18 6.22 18.59 13.96 14.13 13.96 21.29 8.99 24.15 14.88 34.36"/></g></g></svg>