<svg xmlns="http://www.w3.org/2000/svg" viewBox="0 0 170.91 59.69"><defs><style>.cls-1{fill:#fccf00;}</style></defs><g id="Calque_2" data-name="Calque 2"><g id="Calque_1-2" data-name="Calque 1"><polygon class="cls-1" points="25.84 0 51.7 14.92 51.69 44.77 28.21 58.33 22.81 48.98 40.9 38.53 40.9 27.39 27.17 35.32 27.17 22.89 36.09 17.74 25.84 0"/><polygon points="25.85 59.69 0 44.77 0.01 14.92 23.46 1.37 28.86 10.71 10.8 21.16 10.8 32.3 24.26 24.55 24.26 36.98 15.61 41.95 25.85 59.69"/><path d="M74.44,19.47v8.47H86.75v4.75H74.44V45h-5V14.72H87.18v4.75Z"/><path d="M113.3,23.36V45h-4.66V41.84a8.87,8.87,0,0,1-7.56,3.67A11,11,0,0,1,90.33,34.16c0-6.44,4.88-11.36,10.75-11.36a8.94,8.94,0,0,1,7.56,3.63V23.36Zm-4.66,10.8a6.83,6.83,0,1,0-13.65,0,6.83,6.83,0,1,0,13.65,0Z"/><path d="M134.81,40.55V45H118V41.84l10.1-14.08H118.4v-4.4h16v3.11L124.31,40.55Z"/><path d="M170.91,31.56V45h-4.67V31.87c0-3-1.64-4.71-4.18-4.71-2.77,0-4.71,1.77-4.71,5.7V45h-4.67V31.87c0-3-1.51-4.71-4.05-4.71s-4.8,1.77-4.8,5.7V45h-4.66V23.36h4.66V26A7,7,0,0,1,150,22.8a6.7,6.7,0,0,1,6.13,3.41,7.38,7.38,0,0,1,6.61-3.41C167.63,22.8,170.91,26.17,170.91,31.56Z"/></g></g></svg>